Walking06_kinetics.mot
version=1
nRows=32
nColumns=19
inDegrees=yes
endheader
time	1_ground_force_vx	1_ground_force_vy	1_ground_force_vz	1_ground_force_px	1_ground_force_py	1_ground_force_pz	2_ground_force_vx	2_ground_force_vy	2_ground_force_vz	2_ground_force_px	2_ground_force_py	2_ground_force_pz	1_ground_torque_x	1_ground_torque_y	1_ground_torque_z	2_ground_torque_x	2_ground_torque_y	2_ground_torque_z
  0.73500000	-16.22916804	475.24479292	 26.35446766	  0.38991309	 -0.00032873	 -0.16674245	  0.00000000	  0.00000000	  0.00000000	 -0.30181907	  0.00246885	  0.10097818	  0.00224643	 -1.73547916	 -0.00110481	  0.00000000	  0.00000000	  0.00000000
  0.73600000	-16.02010731	473.26320201	 26.07495815	  0.39077526	 -0.00032756	 -0.16682573	  0.00000000	  0.00000000	  0.00000000	 -0.30181907	  0.00246885	  0.10097818	  0.00225198	 -1.73976956	 -0.00110754	  0.00000000	  0.00000000	  0.00000000
  0.73700000	-15.83449580	471.37621696	 25.81018979	  0.39163208	 -0.00032640	 -0.16690914	  0.00000000	  0.00000000	  0.00000000	 -0.30181907	  0.00246885	  0.10097818	  0.00225062	 -1.73871664	 -0.00110687	  0.00000000	  0.00000000	  0.00000000
  0.73800000	-15.66806060	469.58962368	 25.56047314	  0.39247789	 -0.00032525	 -0.16699360	  0.00000000	  0.00000000	  0.00000000	 -0.30181907	  0.00246885	  0.10097818	  0.00224308	 -1.73289796	 -0.00110317	  0.00000000	  0.00000000	  0.00000000
  0.73900000	-15.51592976	467.90329440	 25.32538525	  0.39330854	 -0.00032412	 -0.16708126	  0.00000000	  0.00000000	  0.00000000	 -0.30181907	  0.00246885	  0.10097818	  0.00223098	 -1.72355008	 -0.00109722	  0.00000000	  0.00000000	  0.00000000
  0.74000000	-15.37304000	466.31041389	 25.10359997	  0.39412212	 -0.00032301	 -0.16717494	  0.00000000	  0.00000000	  0.00000000	 -0.30181907	  0.00246885	  0.10097818	  0.00221636	 -1.71225489	 -0.00109003	  0.00000000	  0.00000000	  0.00000000
  0.74100000	-15.23422450	464.79816352	 24.89278844	  0.39491935	 -0.00032191	 -0.16727735	  0.00000000	  0.00000000	  0.00000000	 -0.30181907	  0.00246885	  0.10097818	  0.00220111	 -1.70047299	 -0.00108253	  0.00000000	  0.00000000	  0.00000000
  0.74200000	-15.09469561	463.35021079	 24.68999224	  0.39570300	 -0.00032082	 -0.16739037	  0.00000000	  0.00000000	  0.00000000	 -0.30181907	  0.00246885	  0.10097818	  0.00218659	 -1.68925248	 -0.00107538	  0.00000000	  0.00000000	  0.00000000
  0.74300000	-14.95129021	461.95098278	 24.49265780	  0.39647641	 -0.00031974	 -0.16751472	  0.00000000	  0.00000000	  0.00000000	 -0.30181907	  0.00246885	  0.10097818	  0.00217373	 -1.67931880	 -0.00106906	  0.00000000	  0.00000000	  0.00000000
  0.74400000	-14.80364128	460.59011704	 24.29973017	  0.39724168	 -0.00031867	 -0.16765009	  0.00000000	  0.00000000	  0.00000000	 -0.30181907	  0.00246885	  0.10097818	  0.00216337	 -1.67131255	 -0.00106396	  0.00000000	  0.00000000	  0.00000000
  0.74500000	-14.65408244	459.26507400	 24.11198232	  0.39799869	 -0.00031759	 -0.16779532	  0.00000000	  0.00000000	  0.00000000	 -0.30181907	  0.00246885	  0.10097818	  0.00215626	 -1.66582080	 -0.00106047	  0.00000000	  0.00000000	  0.00000000
  0.74600000	-14.50624482	457.98119105	 23.93144346	  0.39874520	 -0.00031653	 -0.16794867	  0.00000000	  0.00000000	  0.00000000	 -0.30181907	  0.00246885	  0.10097818	  0.00215284	 -1.66318147	 -0.00105879	  0.00000000	  0.00000000	  0.00000000
  0.74700000	-14.36341641	456.74895845	 23.76033283	  0.39947783	 -0.00031548	 -0.16810823	  0.00000000	  0.00000000	  0.00000000	 -0.30181907	  0.00246885	  0.10097818	  0.00215307	 -1.66335812	 -0.00105890	  0.00000000	  0.00000000	  0.00000000
  0.74800000	-14.22750457	455.57886403	 23.59991525	  0.40019373	 -0.00031445	 -0.16827210	  0.00000000	  0.00000000	  0.00000000	 -0.30181907	  0.00246885	  0.10097818	  0.00215659	 -1.66607757	 -0.00106063	  0.00000000	  0.00000000	  0.00000000
  0.74900000	-14.09865957	454.47635377	 23.44974935	  0.40089195	 -0.00031344	 -0.16843855	  0.00000000	  0.00000000	  0.00000000	 -0.30181907	  0.00246885	  0.10097818	  0.00216303	 -1.67104944	 -0.00106380	  0.00000000	  0.00000000	  0.00000000
  0.75000000	-13.97540310	453.44006645	 23.30782181	  0.40157367	 -0.00031245	 -0.16860565	  0.00000000	  0.00000000	  0.00000000	 -0.30181907	  0.00246885	  0.10097818	  0.00217200	 -1.67798167	 -0.00106821	  0.00000000	  0.00000000	  0.00000000
  0.75100000	-13.85514095	452.46370172	 23.17155527	  0.40224136	 -0.00031148	 -0.16877078	  0.00000000	  0.00000000	  0.00000000	 -0.30181907	  0.00246885	  0.10097818	  0.00218289	 -1.68639483	 -0.00107356	  0.00000000	  0.00000000	  0.00000000
  0.75200000	-13.73485567	451.53948225	 23.03915702	  0.40289772	 -0.00031053	 -0.16893060	  0.00000000	  0.00000000	  0.00000000	 -0.30181907	  0.00246885	  0.10097818	  0.00219471	 -1.69552722	 -0.00107938	  0.00000000	  0.00000000	  0.00000000
  0.75300000	-13.61178494	450.66136660	 22.91077076	  0.40354514	 -0.00030960	 -0.16908197	  0.00000000	  0.00000000	  0.00000000	 -0.30181907	  0.00246885	  0.10097818	  0.00220636	 -1.70452289	 -0.00108511	  0.00000000	  0.00000000	  0.00000000
  0.75400000	-13.48390481	449.82668452	 22.78888757	  0.40418593	 -0.00030868	 -0.16922310	  0.00000000	  0.00000000	  0.00000000	 -0.30181907	  0.00246885	  0.10097818	  0.00221699	 -1.71273480	 -0.00109033	  0.00000000	  0.00000000	  0.00000000
  0.75500000	-13.35003919	449.03502733	 22.67745451	  0.40482293	 -0.00030777	 -0.16935397	  0.00000000	  0.00000000	  0.00000000	 -0.30181907	  0.00246885	  0.10097818	  0.00222623	 -1.71987481	 -0.00109488	  0.00000000	  0.00000000	  0.00000000
  0.75600000	-13.20959537	448.28504365	 22.57996548	  0.40546027	 -0.00030687	 -0.16947597	  0.00000000	  0.00000000	  0.00000000	 -0.30181907	  0.00246885	  0.10097818	  0.00223411	 -1.72596434	 -0.00109875	  0.00000000	  0.00000000	  0.00000000
  0.75700000	-13.06208958	447.57223935	 22.49796883	  0.40610324	 -0.00030596	 -0.16959093	  0.00000000	  0.00000000	  0.00000000	 -0.30181907	  0.00246885	  0.10097818	  0.00224090	 -1.73121176	 -0.00110210	  0.00000000	  0.00000000	  0.00000000
  0.75800000	-12.90663622	446.88989847	 22.43099727	  0.40675665	 -0.00030505	 -0.16970001	  0.00000000	  0.00000000	  0.00000000	 -0.30181907	  0.00246885	  0.10097818	  0.00224698	 -1.73591067	 -0.00110509	  0.00000000	  0.00000000	  0.00000000
  0.75900000	-12.74162613	446.23167212	 22.37736543	  0.40742298	 -0.00030412	 -0.16980301	  0.00000000	  0.00000000	  0.00000000	 -0.30181907	  0.00246885	  0.10097818	  0.00225274	 -1.74035649	 -0.00110792	  0.00000000	  0.00000000	  0.00000000
  0.76000000	-12.56483483	445.59340751	 22.33486141	  0.40810195	 -0.00030318	 -0.16989837	  0.00000000	  0.00000000	  0.00000000	 -0.30181907	  0.00246885	  0.10097818	  0.00225842	 -1.74474845	 -0.00111071	  0.00000000	  0.00000000	  0.00000000
  0.76100000	-12.37391421	444.97370631	 22.30110687	  0.40879147	 -0.00030223	 -0.16998409	  0.00000000	  0.00000000	  0.00000000	 -0.30181907	  0.00246885	  0.10097818	  0.00226405	 -1.74909233	 -0.00111348	  0.00000000	  0.00000000	  0.00000000
  0.76200000	-12.16687713	444.37405959	 22.27387012	  0.40948842	 -0.00030128	 -0.17005854	  0.00000000	  0.00000000	  0.00000000	 -0.30181907	  0.00246885	  0.10097818	  0.00226934	 -1.75318544	 -0.00111608	  0.00000000	  0.00000000	  0.00000000
  0.76300000	-11.94228689	443.79906865	 22.25151820	  0.41018817	 -0.00030034	 -0.17012077	  0.00000000	  0.00000000	  0.00000000	 -0.30181907	  0.00246885	  0.10097818	  0.00227393	 -1.75672893	 -0.00111834	  0.00000000	  0.00000000	  0.00000000
  0.76400000	-11.69923787	443.25620548	 22.23345048	  0.41088400	 -0.00029940	 -0.17017058	  0.00000000	  0.00000000	  0.00000000	 -0.30181907	  0.00246885	  0.10097818	  0.00227749	 -1.75947806	 -0.00112009	  0.00000000	  0.00000000	  0.00000000
  0.76500000	-11.43731207	442.75422686	 22.22025233	  0.41156806	 -0.00029849	 -0.17020857	  0.00000000	  0.00000000	  0.00000000	 -0.30181907	  0.00246885	  0.10097818	  0.00227985	 -1.76130422	 -0.00112125	  0.00000000	  0.00000000	  0.00000000
  0.76600000	-11.15660345	442.30060409	 22.21351558	  0.41223399	 -0.00029761	 -0.17023635	  0.00000000	  0.00000000	  0.00000000	 -0.30181907	  0.00246885	  0.10097818	  0.00228095	 -1.76214758	 -0.00112179	  0.00000000	  0.00000000	  0.00000000
